<?xml version="1.0" encoding="UTF-8"?>
<svg id="Capa_2" data-name="Capa 2" xmlns="http://www.w3.org/2000/svg" viewBox="0 0 188.35 58.82">
  <defs>
    <style>
      .cls-1 {
        fill: #1d1d1b;
      }
    </style>
  </defs>
  <g id="Capa_2-2" data-name="Capa 2">
    <path class="cls-1" d="M10.3,46.08c-3.36.05-5.92-.86-7.67-2.74-1.75-1.87-2.63-4.68-2.63-8.42v-13.1c0-3.84.86-6.7,2.59-8.57s4.22-2.81,7.49-2.81c2.11,0,3.88.41,5.29,1.22,1.42.82,2.51,1.96,3.28,3.42.77,1.46,1.1,3.23,1.01,5.29,0,.24-.1.36-.29.36h-1.01c-.14,0-.22-.1-.22-.29.05-2.59-.64-4.66-2.05-6.19-1.42-1.54-3.42-2.3-6.01-2.3-2.83,0-4.97.8-6.41,2.41-1.44,1.61-2.16,4.09-2.16,7.45v13.03c0,3.31.73,5.76,2.2,7.34,1.46,1.58,3.66,2.38,6.59,2.38,2.74,0,4.74-.76,6.01-2.27,1.27-1.51,1.88-3.78,1.84-6.8,0-.19.07-.29.22-.29h1.01c.14,0,.22.1.22.29.05,3.41-.68,6.01-2.2,7.81-1.51,1.8-3.88,2.72-7.09,2.77Z"/>
    <path class="cls-1" d="M33.96,46.08c-2.35,0-4.14-.73-5.36-2.2-1.22-1.46-1.84-3.95-1.84-7.45V11.3c0-.19.1-.29.29-.29h1.01c.14,0,.22.1.22.29v24.98c0,3.02.49,5.16,1.48,6.41.98,1.25,2.46,1.87,4.43,1.87s3.88-.7,5.72-2.09c1.85-1.39,3.64-3.19,5.36-5.4l.07,1.87c-1.87,2.21-3.73,3.95-5.58,5.22-1.85,1.27-3.78,1.91-5.8,1.91ZM45.55,45.5c-.19,0-.29-.1-.29-.29-.05-1.2-.11-2.4-.18-3.6-.07-1.2-.11-2.28-.11-3.24V11.3c0-.19.07-.29.22-.29h1.01c.19,0,.29.1.29.29v26.21c0,1.34.02,2.66.07,3.96.05,1.3.1,2.54.14,3.74,0,.19-.1.29-.29.29h-.86Z"/>
    <path class="cls-1" d="M54.8,45.5c-.19,0-.29-.1-.29-.29v-26.21c0-1.34-.02-2.66-.07-3.96-.05-1.3-.12-2.52-.22-3.67,0-.24.1-.36.29-.36h.94c.14,0,.22.1.22.29.1,1.15.18,2.34.25,3.56.07,1.22.11,2.29.11,3.2v27.14c0,.19-.07.29-.22.29h-1.01ZM55.45,19.8v-1.8c.72-1.06,1.58-2.17,2.59-3.35,1.01-1.18,2.14-2.17,3.38-2.99,1.25-.82,2.62-1.22,4.1-1.22.38,0,.71.01.97.04.26.02.52.08.76.18.1.05.17.08.22.11.05.02.07.11.07.25v.5c0,.14-.02.29-.07.43,0,.29-.14.41-.43.36-.19-.05-.41-.08-.65-.11-.24-.02-.55-.04-.94-.04-1.3,0-2.53.36-3.71,1.08-1.18.72-2.28,1.67-3.31,2.84-1.03,1.18-2.03,2.41-2.99,3.71Z"/>
    <path class="cls-1" d="M74.37,3.24c-.43,0-.78-.12-1.04-.36-.26-.24-.4-.58-.4-1.01v-.5c0-.43.13-.77.4-1.01.26-.24.61-.36,1.04-.36s.78.12,1.04.36c.26.24.4.58.4,1.01v.5c0,.43-.13.77-.4,1.01-.26.24-.61.36-1.04.36ZM73.87,45.5c-.19,0-.29-.1-.29-.29V11.3c0-.19.1-.29.29-.29h1.01c.14,0,.22.1.22.29v33.91c0,.19-.07.29-.22.29h-1.01Z"/>
    <path class="cls-1" d="M137.05,3.24c-.43,0-.78-.12-1.04-.36-.26-.24-.4-.58-.4-1.01v-.5c0-.43.13-.77.4-1.01.26-.24.61-.36,1.04-.36s.78.12,1.04.36c.26.24.4.58.4,1.01v.5c0,.43-.13.77-.4,1.01s-.61.36-1.04.36ZM136.54,45.5c-.19,0-.29-.1-.29-.29V11.3c0-.19.1-.29.29-.29h1.01c.14,0,.22.1.22.29v33.91c0,.19-.07.29-.22.29h-1.01Z"/>
    <path class="cls-1" d="M155.54,46.08c-2.3,0-3.98-.72-5.04-2.16-1.06-1.44-1.58-3.84-1.58-7.2V12.53h-4.61c-.14,0-.22-.1-.22-.29v-.94c0-.19.07-.29.22-.29h4.61l.14-9.72c.05-.19.14-.29.29-.29h.79c.19,0,.29.1.29.29v9.72h9.79c.19,0,.29.1.29.29v.94c0,.19-.1.29-.29.29h-9.79v24.19c0,2.78.41,4.8,1.22,6.05.82,1.25,2.14,1.87,3.96,1.87.82,0,1.66-.1,2.52-.29.86-.19,1.66-.46,2.38-.79.19-.1.29-.02.29.22v1.01c0,.14-.07.24-.22.29-.67.34-1.48.59-2.41.76-.94.17-1.81.25-2.63.25Z"/>
    <path class="cls-1" d="M172.41,58.82s-.11-.04-.18-.11c-.07-.07-.08-.16-.04-.25l4.03-13.1-10.51-33.98c-.1-.24-.05-.36.14-.36h1.15c.19,0,.31.12.36.36l6.62,21.6c.53,1.63,1.03,3.28,1.51,4.93.48,1.66.96,3.3,1.44,4.93h.07c.53-1.63,1.04-3.28,1.55-4.93.5-1.66.97-3.3,1.4-4.93l6.7-21.6c.1-.24.22-.36.36-.36h1.01c.29,0,.38.14.29.43l-14.54,47.16c-.05.14-.17.22-.36.22h-1.01Z"/>
    <g>
      <path class="cls-1" d="M92.62,46.08c-3.31,0-5.87-.96-7.67-2.88-1.8-1.92-2.7-4.68-2.7-8.28v-13.32c0-3.6.91-6.36,2.74-8.28,1.82-1.92,4.37-2.88,7.63-2.88s5.84.95,7.6,2.84c1.75,1.9,2.63,4.67,2.63,8.32v13.32c0,3.6-.89,6.36-2.66,8.28-1.78,1.92-4.3,2.88-7.56,2.88ZM92.62,44.57c2.83,0,4.99-.84,6.48-2.52,1.49-1.68,2.23-4.1,2.23-7.27v-13.03c0-3.22-.74-5.65-2.23-7.31-1.49-1.66-3.65-2.48-6.48-2.48s-5.02.83-6.55,2.48c-1.54,1.66-2.3,4.09-2.3,7.31v13.03c0,3.17.77,5.59,2.3,7.27,1.54,1.68,3.72,2.52,6.55,2.52Z"/>
      <path class="cls-1" d="M119.79,46.08c-3.36.05-5.92-.86-7.67-2.74-1.75-1.87-2.63-4.68-2.63-8.42v-13.1c0-3.84.86-6.7,2.59-8.57s4.22-2.81,7.49-2.81c2.11,0,3.88.41,5.29,1.22,1.42.82,2.51,1.96,3.28,3.42.77,1.46,1.1,3.23,1.01,5.29,0,.24-.1.36-.29.36h-1.01c-.14,0-.22-.1-.22-.29.05-2.59-.64-4.66-2.05-6.19-1.42-1.54-3.42-2.3-6.01-2.3-2.83,0-4.97.8-6.41,2.41-1.44,1.61-2.16,4.09-2.16,7.45v13.03c0,3.31.73,5.76,2.2,7.34,1.46,1.58,3.66,2.38,6.59,2.38,2.74,0,4.74-.76,6.01-2.27,1.27-1.51,1.88-3.78,1.84-6.8,0-.19.07-.29.22-.29h1.01c.14,0,.22.1.22.29.05,3.41-.68,6.01-2.2,7.81-1.51,1.8-3.88,2.72-7.09,2.77Z"/>
      <ellipse class="cls-1" cx="123.83" cy="27.88" rx="3.72" ry="5.93"/>
      <ellipse class="cls-1" cx="96.75" cy="27.88" rx="3.72" ry="5.93"/>
    </g>
  </g>
</svg>